<mxfile host="app.diagrams.net" agent="Mozilla/5.0 (X11; Ubuntu; Linux x86_64; rv:135.0) Gecko/20100101 Firefox/135.0" version="26.0.12">
  <diagram name="Page-1" id="58cdce13-f638-feb5-8d6f-7d28b1aa9fa0">
    <mxGraphModel dx="1426" dy="791" grid="1" gridSize="10" guides="1" tooltips="1" connect="1" arrows="1" fold="1" page="1" pageScale="1" pageWidth="1100" pageHeight="850" background="none" math="0" shadow="0">
      <root>
        <mxCell id="0" />
        <mxCell id="1" parent="0" />
        <mxCell id="T8kdmw_O1CwZhHYP_g-t-17" style="edgeStyle=orthogonalEdgeStyle;rounded=0;orthogonalLoop=1;jettySize=auto;html=1;entryX=0;entryY=0.5;entryDx=0;entryDy=0;" edge="1" parent="1" source="T8kdmw_O1CwZhHYP_g-t-4" target="T8kdmw_O1CwZhHYP_g-t-11">
          <mxGeometry relative="1" as="geometry" />
        </mxCell>
        <mxCell id="T8kdmw_O1CwZhHYP_g-t-4" value="&lt;div&gt;Moving up&lt;/div&gt;" style="rounded=1;whiteSpace=wrap;html=1;fillColor=light-dark(#FFFFCC,var(--ge-dark-color, #121212));" vertex="1" parent="1">
          <mxGeometry x="280" y="310" width="120" height="60" as="geometry" />
        </mxCell>
        <mxCell id="T8kdmw_O1CwZhHYP_g-t-18" style="edgeStyle=orthogonalEdgeStyle;rounded=0;orthogonalLoop=1;jettySize=auto;html=1;entryX=1;entryY=0.5;entryDx=0;entryDy=0;" edge="1" parent="1" source="T8kdmw_O1CwZhHYP_g-t-6" target="T8kdmw_O1CwZhHYP_g-t-11">
          <mxGeometry relative="1" as="geometry" />
        </mxCell>
        <mxCell id="T8kdmw_O1CwZhHYP_g-t-6" value="Moving Down" style="rounded=1;whiteSpace=wrap;html=1;fillColor=light-dark(#FFFFCC,var(--ge-dark-color, #121212));" vertex="1" parent="1">
          <mxGeometry x="520" y="310" width="120" height="60" as="geometry" />
        </mxCell>
        <mxCell id="T8kdmw_O1CwZhHYP_g-t-22" style="edgeStyle=orthogonalEdgeStyle;rounded=0;orthogonalLoop=1;jettySize=auto;html=1;exitX=0.5;exitY=1;exitDx=0;exitDy=0;entryX=0.5;entryY=0;entryDx=0;entryDy=0;" edge="1" parent="1" source="T8kdmw_O1CwZhHYP_g-t-7" target="T8kdmw_O1CwZhHYP_g-t-9">
          <mxGeometry relative="1" as="geometry" />
        </mxCell>
        <mxCell id="T8kdmw_O1CwZhHYP_g-t-7" value="&lt;div&gt;Idle&lt;/div&gt;" style="rounded=1;whiteSpace=wrap;html=1;fillColor=light-dark(#FFE6CC,var(--ge-dark-color, #121212));" vertex="1" parent="1">
          <mxGeometry x="400" y="120" width="120" height="60" as="geometry" />
        </mxCell>
        <mxCell id="T8kdmw_O1CwZhHYP_g-t-19" style="edgeStyle=orthogonalEdgeStyle;rounded=0;orthogonalLoop=1;jettySize=auto;html=1;" edge="1" parent="1" source="T8kdmw_O1CwZhHYP_g-t-9" target="T8kdmw_O1CwZhHYP_g-t-4">
          <mxGeometry relative="1" as="geometry" />
        </mxCell>
        <mxCell id="T8kdmw_O1CwZhHYP_g-t-20" style="edgeStyle=orthogonalEdgeStyle;rounded=0;orthogonalLoop=1;jettySize=auto;html=1;" edge="1" parent="1" source="T8kdmw_O1CwZhHYP_g-t-9" target="T8kdmw_O1CwZhHYP_g-t-6">
          <mxGeometry relative="1" as="geometry" />
        </mxCell>
        <mxCell id="T8kdmw_O1CwZhHYP_g-t-9" value="" style="rhombus;whiteSpace=wrap;html=1;fillColor=light-dark(#CCE5FF,var(--ge-dark-color, #121212));" vertex="1" parent="1">
          <mxGeometry x="435" y="220" width="50" height="80" as="geometry" />
        </mxCell>
        <mxCell id="T8kdmw_O1CwZhHYP_g-t-14" value="" style="edgeStyle=orthogonalEdgeStyle;rounded=0;orthogonalLoop=1;jettySize=auto;html=1;" edge="1" parent="1" source="T8kdmw_O1CwZhHYP_g-t-10" target="T8kdmw_O1CwZhHYP_g-t-12">
          <mxGeometry relative="1" as="geometry" />
        </mxCell>
        <mxCell id="T8kdmw_O1CwZhHYP_g-t-15" value="&lt;div&gt;If unobstructed&lt;/div&gt;" style="edgeLabel;html=1;align=center;verticalAlign=middle;resizable=0;points=[];" vertex="1" connectable="0" parent="T8kdmw_O1CwZhHYP_g-t-14">
          <mxGeometry x="-0.3333" y="4" relative="1" as="geometry">
            <mxPoint x="46" y="10" as="offset" />
          </mxGeometry>
        </mxCell>
        <mxCell id="T8kdmw_O1CwZhHYP_g-t-10" value="&lt;div&gt;Door Open&lt;/div&gt;" style="rounded=1;whiteSpace=wrap;html=1;fillColor=light-dark(#E6FFCC,var(--ge-dark-color, #121212));" vertex="1" parent="1">
          <mxGeometry x="400" y="490" width="120" height="60" as="geometry" />
        </mxCell>
        <mxCell id="T8kdmw_O1CwZhHYP_g-t-16" value="" style="edgeStyle=orthogonalEdgeStyle;rounded=0;orthogonalLoop=1;jettySize=auto;html=1;" edge="1" parent="1" source="T8kdmw_O1CwZhHYP_g-t-11" target="T8kdmw_O1CwZhHYP_g-t-10">
          <mxGeometry relative="1" as="geometry" />
        </mxCell>
        <mxCell id="T8kdmw_O1CwZhHYP_g-t-11" value="&lt;div&gt;Stopping&lt;/div&gt;" style="rounded=1;whiteSpace=wrap;html=1;fillColor=light-dark(#FFCCCC,var(--ge-dark-color, #121212));" vertex="1" parent="1">
          <mxGeometry x="400" y="410" width="120" height="60" as="geometry" />
        </mxCell>
        <mxCell id="T8kdmw_O1CwZhHYP_g-t-21" style="edgeStyle=orthogonalEdgeStyle;rounded=0;orthogonalLoop=1;jettySize=auto;html=1;exitX=0.5;exitY=1;exitDx=0;exitDy=0;" edge="1" parent="1" source="T8kdmw_O1CwZhHYP_g-t-12" target="T8kdmw_O1CwZhHYP_g-t-13">
          <mxGeometry relative="1" as="geometry" />
        </mxCell>
        <mxCell id="T8kdmw_O1CwZhHYP_g-t-12" value="Door Close" style="rounded=1;whiteSpace=wrap;html=1;fillColor=light-dark(#FFCCCC,var(--ge-dark-color, #121212));" vertex="1" parent="1">
          <mxGeometry x="400" y="610" width="120" height="60" as="geometry" />
        </mxCell>
        <mxCell id="T8kdmw_O1CwZhHYP_g-t-23" style="edgeStyle=orthogonalEdgeStyle;rounded=0;orthogonalLoop=1;jettySize=auto;html=1;entryX=0;entryY=0.5;entryDx=0;entryDy=0;" edge="1" parent="1" target="T8kdmw_O1CwZhHYP_g-t-4">
          <mxGeometry relative="1" as="geometry">
            <mxPoint x="400" y="720" as="sourcePoint" />
            <mxPoint x="220" y="370" as="targetPoint" />
            <Array as="points">
              <mxPoint x="250" y="720" />
              <mxPoint x="250" y="340" />
            </Array>
          </mxGeometry>
        </mxCell>
        <mxCell id="T8kdmw_O1CwZhHYP_g-t-24" style="edgeStyle=orthogonalEdgeStyle;rounded=0;orthogonalLoop=1;jettySize=auto;html=1;entryX=1;entryY=0.5;entryDx=0;entryDy=0;" edge="1" parent="1" target="T8kdmw_O1CwZhHYP_g-t-6">
          <mxGeometry relative="1" as="geometry">
            <mxPoint x="520" y="720" as="sourcePoint" />
            <mxPoint x="700" y="340" as="targetPoint" />
            <Array as="points">
              <mxPoint x="670" y="720" />
              <mxPoint x="670" y="340" />
            </Array>
          </mxGeometry>
        </mxCell>
        <mxCell id="T8kdmw_O1CwZhHYP_g-t-25" style="edgeStyle=orthogonalEdgeStyle;rounded=0;orthogonalLoop=1;jettySize=auto;html=1;exitX=0.5;exitY=1;exitDx=0;exitDy=0;entryX=1;entryY=0.5;entryDx=0;entryDy=0;" edge="1" parent="1" source="T8kdmw_O1CwZhHYP_g-t-13" target="T8kdmw_O1CwZhHYP_g-t-7">
          <mxGeometry relative="1" as="geometry">
            <mxPoint x="760" y="150" as="targetPoint" />
            <Array as="points">
              <mxPoint x="460" y="770" />
              <mxPoint x="720" y="770" />
              <mxPoint x="720" y="150" />
            </Array>
          </mxGeometry>
        </mxCell>
        <mxCell id="T8kdmw_O1CwZhHYP_g-t-13" value="Move to next action in queue" style="rounded=1;whiteSpace=wrap;html=1;fillColor=light-dark(#CCFFE6,var(--ge-dark-color, #121212));" vertex="1" parent="1">
          <mxGeometry x="400" y="690" width="120" height="60" as="geometry" />
        </mxCell>
        <mxCell id="T8kdmw_O1CwZhHYP_g-t-26" value="&lt;div&gt;Button pressed&lt;/div&gt;" style="text;html=1;align=center;verticalAlign=middle;resizable=0;points=[];autosize=1;strokeColor=none;fillColor=none;" vertex="1" parent="1">
          <mxGeometry x="410" y="300" width="100" height="30" as="geometry" />
        </mxCell>
        <mxCell id="T8kdmw_O1CwZhHYP_g-t-27" value="&lt;div&gt;No more floors in queue&lt;/div&gt;" style="text;html=1;align=center;verticalAlign=middle;resizable=0;points=[];autosize=1;strokeColor=none;fillColor=none;" vertex="1" parent="1">
          <mxGeometry x="530" y="738" width="150" height="30" as="geometry" />
        </mxCell>
      </root>
    </mxGraphModel>
  </diagram>
</mxfile>
